# xmcd CD database file
# Copyright (C) 1993-1998 Ti Kan
#
# Track frame offsets:
#  150
#  12335
#  24233
#  38283
#  52025
#  66993
#  79338
#  97923
#  110948
#  123093
#  139913
#
# Disc length: 2019 seconds
#
# Revision: 2
# Processed by: cddbd v1.4PL0 Copyright (c) Steve Scherf et al.
# Submitted via: Gronk 1.4
#
DISCID=8c07e10b
DTITLE=Marvin Gaye - Romantically Yours
DYEAR=1900
DGENRE=blues
TTITLE0=More
TTITLE1=Why Did I Choose You ?
TTITLE2=Maria
TTITLE3=The Shadow Of Your Smile
TTITLE4=Fly Me To The Moon (In Other Words)
TTITLE5=I Won't Cry Anymore
TTITLE6=Just Like
TTITLE7=Walkin' In The Rain
TTITLE8=I Live For You
TTITLE9=Stranger In My Life
TTITLE10=Happy Go Lucky
EXTD=
EXTT0=
EXTT1=
EXTT2=
EXTT3=
EXTT4=
EXTT5=
EXTT6=
EXTT7=
EXTT8=
EXTT9=
EXTT10=
PLAYORDER=
